<svg xmlns="http://www.w3.org/2000/svg" viewBox="0 0 25 20" version="1.1" fill="#000000">
  <title>Menu</title>
  <path
    d="M24,18 C24.5522847,18 25,18.4477153 25,19 C25,19.5522847 24.5522847,20 24,20 L1,20 C0.44771525,20 6.76353751e-17,19.5522847 0,19 C-6.76353751e-17,18.4477153 0.44771525,18 1,18 L24,18 Z M24,9 C24.5522847,9 25,9.44771525 25,10 C25,10.5522847 24.5522847,11 24,11 L1,11 C0.44771525,11 6.76353751e-17,10.5522847 0,10 C-6.76353751e-17,9.44771525 0.44771525,9 1,9 L24,9 Z M24,0 C24.5522847,-1.01453063e-16 25,0.44771525 25,1 C25,1.55228475 24.5522847,2 24,2 L1,2 C0.44771525,2 6.76353751e-17,1.55228475 0,1 C-6.76353751e-17,0.44771525 0.44771525,1.01453063e-16 1,0 L24,0 Z">
  </path>
</svg>