<svg version="1.0" xmlns="http://www.w3.org/2000/svg" viewBox="0 0 100 100" preserveAspectRatio="xMidYMid meet">
  <g transform="translate(0,100) scale(0.1,-0.1)" fill="currentColor" stroke="none">
    <path d="M185 835 c-14 -13 -25 -30 -25 -37 -1 -7 -20 -22 -43 -33 -65 -31
      -77 -64 -77 -221 0 -197 29 -267 132 -318 l52 -26 276 0 276 0 52 26 c58 29
      103 84 121 149 6 22 11 98 11 170 0 156 -12 189 -77 220 -23 11 -42 26 -43 33
      0 7 -11 24 -25 37 -21 22 -33 25 -95 25 -62 0 -74 -3 -95 -25 -14 -13 -25 -31
      -25 -40 0 -12 -16 -15 -100 -15 -84 0 -100 3 -100 15 0 9 -11 27 -25 40 -21
      22 -33 25 -95 25 -62 0 -74 -3 -95 -25z m163 -27 c23 -23 11 -28 -68 -28 -44
      0 -80 4 -80 8 0 21 29 32 80 32 31 0 61 -5 68 -12z m440 0 c23 -23 11 -28 -68
      -28 -44 0 -80 4 -80 8 0 21 29 32 80 32 31 0 61 -5 68 -12z m106 -99 c14 -17
      26 -39 26 -50 0 -18 -12 -19 -420 -19 -408 0 -420 1 -420 19 0 11 12 33 26 50
      l26 31 368 0 368 0 26 -31z m26 -201 c0 -51 -5 -110 -11 -131 -14 -52 -72
      -114 -117 -127 -48 -13 -536 -13 -584 0 -45 13 -103 75 -117 127 -6 21 -11 80
      -11 131 l0 92 420 0 420 0 0 -92z" />
    <path d="M231 526 c-87 -48 -50 -186 49 -186 51 0 100 49 100 99 0 75 -83 124
      -149 87z m99 -58 c13 -25 13 -31 0 -55 -21 -38 -71 -44 -94 -11 -21 29 -20 57
      1 80 25 28 73 20 93 -14z" />
    <path d="M550 525 c-15 -18 -10 -45 13 -59 34 -22 73 27 47 59 -16 19 -44 19
      -60 0z" />
    <path d="M760 520 c0 -13 7 -20 20 -20 13 0 20 7 20 20 0 13 -7 20 -20 20 -13
      0 -20 -7 -20 -20z" />
    <path d="M470 445 c-26 -32 13 -81 48 -59 22 14 27 41 12 59 -16 19 -44 19
      -60 0z" />
    <path d="M630 445 c-15 -18 -10 -45 13 -59 34 -22 73 27 47 59 -16 19 -44 19
      -60 0z" />
    <path d="M550 365 c-15 -18 -10 -45 13 -59 34 -22 73 27 47 59 -16 19 -44 19
      -60 0z" />
  </g>
</svg>