<svg width="105px" height="25px" viewBox="0 0 105 25" version="1.1" xmlns="http://www.w3.org/2000/svg" fill="#000000">
    <title>Lab Digital</title>
    <path d="M71.198958,5.12138269 L71.198958,19.1985422 C71.198958,22.6086495 69.0454399,24.326687 64.7117416,24.4037571 C61.6346326,24.4037571 59.6863569,22.9677543 58.8917715,20.0960266 L58.8917715,20.0960266 L62.660567,20.0960266 C62.8913606,21.070581 63.6867792,21.5316127 65.0968142,21.5316127 C66.8919218,21.5316127 67.8138464,20.4804048 67.8138464,18.377989 L67.8138464,18.377989 L67.8138464,16.9935052 C66.9423298,18.3268867 65.6344994,18.9931609 63.9424296,18.9931609 C60.3268022,18.9931609 58.5322501,16.634817 58.5322501,11.9674262 C58.5322501,7.4548698 60.6349436,5.19845276 64.8403306,5.12166042 C66.1283033,5.11388398 67.6242957,5.6883684 68.1174052,6.80637035 C68.1174052,5.41855375 68.8496403,5.12138269 69.4811982,5.12138269 L69.4811982,5.12138269 L71.198958,5.12138269 Z M13.1020242,5.12138269 C16.844852,5.12138269 18.7423031,6.352143 18.8193731,8.86518252 L18.8193731,8.86518252 L18.8193731,10.4875421 L18.8202063,10.4875421 L18.8202063,19.1752129 L17.1013356,19.1752129 C16.4185365,19.1752129 15.9823616,18.5307405 15.7415697,18.1108128 C15.1577814,18.6598849 13.974374,19.0716196 12.8962263,19.1466067 C9.64039802,19.4035069 7.38342552,17.8904341 7.38342552,14.890534 C7.46007899,11.6341502 9.81925612,10.7623559 13.2553312,10.4292188 C14.7174405,10.2496664 15.4607847,9.81376919 15.4607847,9.07000837 C15.3828815,8.30069638 14.6653661,7.91631812 13.2553312,7.91631812 C12.0498443,7.91631812 11.3835701,8.22404292 11.2045731,8.86518252 L11.2045731,8.86518252 L7.79488245,8.86518252 C8.20383982,6.352143 9.97270192,5.12138269 13.1020242,5.12138269 Z M91.7184122,5.12138269 C95.4620731,5.12138269 97.3595242,6.352143 97.4363165,8.86518252 L97.4363165,8.86518252 L97.4363165,19.1752129 L95.7178624,19.1752129 C95.0353411,19.1752129 94.5981941,18.5307405 94.3589297,18.1108128 C93.688073,18.8906785 92.5915952,19.0716196 91.5135863,19.1466067 C88.2576192,19.4035069 86.0010633,17.8904341 86.0010633,14.890534 C86.0777167,11.6341502 88.4366161,10.7623559 91.8725523,10.4292188 C93.3339673,10.2496664 94.0771727,9.81376919 94.0771727,9.07000837 C94.0010747,8.30069638 93.2827262,7.91631812 91.8725523,7.91631812 C90.667482,7.91631812 90.0003746,8.22404292 89.8211,8.86518252 L89.8211,8.86518252 L86.4104372,8.86518252 C86.8206444,6.352143 88.5907562,5.12138269 91.7184122,5.12138269 Z M22.3614362,1.33258087 C23.489853,1.33258087 24.0530894,1.92192385 24.0530894,3.05089612 L24.0530894,3.05089612 L24.0530894,7.10186529 C24.925578,5.69155256 26.2078573,4.99931064 27.9003436,4.99931064 C31.5158322,5.12762188 33.3101066,7.48638241 33.3101066,12.1019766 C33.3101066,16.6142552 31.2074131,18.8967789 27.0018872,18.9735712 C25.7352997,18.9817642 24.4778774,18.7686065 23.7716101,18.0141531 C23.4988793,18.4175558 23.03021,19.053002 22.3614362,19.053002 L22.3614362,19.053002 L20.6442319,19.053002 L20.6442319,1.33258087 Z M48.6688948,1.33258087 C49.5916526,1.33258087 50.3611034,2.12730515 50.3611034,3.05089612 L50.3611034,3.05089612 L50.3611034,7.53928997 L50.3902651,7.48929858 L50.3902651,19.053002 L48.6722276,19.053002 C47.998177,19.053002 47.5272858,18.4143619 47.2563602,18.0054046 C46.7628341,18.6243258 45.279895,18.9817642 44.0010874,18.9735712 C39.797089,18.8967789 37.6938401,16.6142552 37.6938401,12.1019766 C37.6938401,7.48638241 39.4892254,5.12762188 43.1041585,4.99931064 C44.7970615,4.99931064 46.1040586,5.69155256 46.9764084,7.10186529 L46.9764084,7.10186529 L46.9764084,1.33258087 Z M80.192754,1.33258087 C81.0902383,1.33258087 81.8333048,2.1532729 81.8333048,3.05089612 L81.8333048,3.05089612 L81.8333048,5.20427535 L83.8853126,5.20427535 L83.8853126,5.94803618 C83.8853126,6.92217401 83.1419684,7.64010595 82.1928263,7.64010595 L82.1928263,7.64010595 L81.8333048,7.64010595 L81.8330493,13.9173395 C81.8294953,15.228339 81.807962,16.1569728 83.0907272,16.1569728 L83.0907272,16.1569728 L83.9140577,16.1569728 L83.9140577,18.7463881 L81.1380079,18.7463881 C78.6737242,18.7463881 78.4462405,16.7405264 78.4255,14.7950156 L78.4235909,14.4624762 L78.4235909,14.4624762 L78.4234596,1.33258087 Z M99.2621473,1.33258087 L99.2663133,1.34688397 L101.030593,1.34688397 C101.928633,1.34688397 102.67156,2.11605709 102.67156,3.01354144 L102.67156,3.01354144 L102.67156,12.9351665 L102.672393,12.9368328 L102.672108,13.7286298 C102.672067,13.770106 102.67202,13.8082911 102.671967,13.8415437 L102.671514,14.2882017 C102.676787,15.3999195 102.771451,16.1569728 103.929816,16.1569728 L103.929816,16.1569728 L104.753007,16.1569728 L104.753007,18.7456938 L101.976958,18.7456938 C99.3798636,18.7456938 99.2669412,16.5305412 99.2623217,14.9186493 L99.2621473,13.1554063 L99.2618696,13.1554063 L99.2618696,1.34688397 L99.2621473,1.34688397 L99.2621473,1.33258087 Z M2.52231591,1.33258087 C3.41980027,1.33258087 4.1635611,2.10175399 4.1635611,2.99923835 L4.1635611,2.99923835 L4.1633157,14.279576 C4.16808694,15.3874829 4.26486612,16.1428086 5.42126121,16.1428086 L5.42126121,16.1428086 L6.24459167,16.1428086 L6.24459167,18.7313907 L3.4668755,18.7313907 C0.933337371,18.7313907 0.76470481,16.622168 0.753752689,14.6169785 L0.753022338,1.33258087 Z M54.6186038,5.12138269 C55.7210528,5.12138269 56.2594324,5.66017881 56.2594324,6.76262788 L56.2594324,6.76262788 L56.2594324,18.685575 L52.8490473,18.685575 L52.8490473,5.12138269 Z M74.5096745,5.12138269 C75.6114292,5.12138269 76.1499476,5.66017881 76.1499476,6.76262788 L76.1499476,6.76262788 L76.1499476,18.685575 L72.7402569,18.685575 L72.7402569,5.12138269 Z M15.5114705,12.0700474 C14.7174405,12.4031845 13.7938495,12.685497 12.7936051,12.8908783 C11.4355056,13.1468064 10.7428471,13.7880849 10.7428471,14.7877739 C10.8204726,15.8648107 11.3835701,16.3780556 12.4608846,16.3780556 C14.3583357,16.3780556 15.5114705,15.2497777 15.5114705,13.32622 L15.5114705,13.32622 Z M94.1286916,12.0700474 C93.3339673,12.4031845 92.4110707,12.685497 91.4109651,12.8908783 C90.0518936,13.1468064 89.3596516,13.7880849 89.3596516,14.7877739 C89.436444,15.8648107 90.0003746,16.3780556 91.0769948,16.3780556 C92.9751402,16.3780556 94.1286916,15.2497777 94.1286916,13.32622 L94.1286916,13.32622 Z M26.9512015,8.05045196 C25.1052693,8.05045196 24.1561272,9.33245344 24.0530894,11.9478365 C24.0279548,14.691253 24.9511292,16.0758757 26.8996826,16.0758757 C28.8490692,16.0758757 29.8223738,14.691253 29.8223738,11.9478365 C29.7458592,9.33245344 28.7969948,8.05045196 26.9512015,8.05045196 Z M44.104403,8.05045196 C42.2584708,8.05045196 41.3093287,9.33245344 41.2069852,11.9478365 C41.1819895,14.691253 42.1043307,16.0758757 44.0531618,16.0758757 C46.0025484,16.0758757 46.9764084,14.691253 46.9764084,11.9478365 C46.899755,9.33245344 45.9506128,8.05045196 44.104403,8.05045196 Z M64.9430907,7.96825363 C62.9932875,7.96825363 62.0449786,9.32676971 62.0449786,12.070464 C62.1217709,14.6857081 63.0456396,15.9936774 64.8914329,15.9936774 C66.7379205,15.9936774 67.7120584,14.6857081 67.8138464,12.070464 C67.8393976,9.32676971 66.8919218,7.96825363 64.9430907,7.96825363 Z M54.6096656,0.38538042 C55.5504758,0.38538042 56.2904873,1.08151056 56.2604925,1.94122364 C56.2303588,2.79996467 55.4425777,3.49595595 54.5006566,3.49595595 C53.559152,3.49595595 52.8192794,2.79996467 52.8499686,1.94122364 C52.8805189,1.08151056 53.6680222,0.38538042 54.6096656,0.38538042 Z M74.500812,0.38538042 C75.4417611,0.38538042 76.1813559,1.08151056 76.1513611,1.94122364 C76.1220606,2.79996467 75.3337241,3.49595595 74.3916641,3.49595595 C73.4502984,3.49595595 72.7115367,2.79996467 72.741115,1.94122364 C72.7715264,1.08151056 73.5584742,0.38538042 74.500812,0.38538042 Z"></path>
</svg>